# xmcd CD database file
#
# Track frame offsets:
#	150
#	17870
#	36504
#	52431
#	67521
#	85320
#	105225
#	128574
#	141626
#	159803
#	182965
#	203209
#	221271
#
# Disc length: 3218 seconds
#
# Revision: 0
# Processed by: cddbd v1.5.2PL0 Copyright (c) Steve Scherf et al.
# Submitted via: CDex 1.51
#
DISCID=b60c900d
DTITLE=Raivo Tafenau - So What - Memory of A Dream
DYEAR=1996
DGENRE=Jazz
TTITLE0=Making Love
TTITLE1=All It Takes
TTITLE2=Elizete
TTITLE3=Yesterday
TTITLE4=Time After Time
TTITLE5=Contry
TTITLE6=Wich Way To Go
TTITLE7=Eternal Flame
TTITLE8=Sunshine Lady
TTITLE9=Memory Of A Dream
TTITLE10=Without You
TTITLE11=Every Time You Go Away
TTITLE12=No More Lonely Nights
EXTD=YEAR: 1996
EXTT0=
EXTT1=
EXTT2=
EXTT3=
EXTT4=
EXTT5=
EXTT6=
EXTT7=
EXTT8=
EXTT9=
EXTT10=
EXTT11=
EXTT12=
PLAYORDER=
